                        <?xml version="1.0" encoding="utf-8"?>
            <!DOCTYPE svg PUBLIC "-//W3C//DTD SVG 1.1//EN" "http://www.w3.org/Graphics/SVG/1.1/DTD/svg11.dtd">
            <svg version="1.1" id="Layer_1" xmlns="http://www.w3.org/2000/svg" xmlns:xlink="http://www.w3.org/1999/xlink" x="0px" y="0px"
               width="350px" height="200px" viewBox="0 0 350 200" enable-background="new 0 0 350 200" xml:space="preserve">
            <path class="face" fill="none" stroke="#000000" stroke-width="0.75" stroke-miterlimit="10" d="M26.315,12.849
              c1.39,3.242,8.956-1.5,10.675-2.989c2.202-1.903,5.799-7.195,9.157-3.858c-1.694,0.69-1.446,3.435-1.519,5.033
              c3.131,0.546,10.412-0.987,11.102,4.062c-0.895,0.021-1.842,0.014-2.735,0.075c0.391,1.692,2.356,2.29,3.467,3.57
              c1.015,1.171,1.59,2.753,1.942,4.24c-1.471-0.61-2.705-1.53-4.334-1.515c1.146,0.843,2.057,2.126,1.211,3.28
              c3.442-1.452,6.243-0.581,8.856,1.87c2.541,2.386,5.589,3.987,7.556,7.043c1.733,2.701,2.588,6.109,1.27,9.137
              c-1.578,3.625-5.708,6.329-9.572,5.081c2.94-2.817,2.456-4.833-0.02-8.126c-1.906-2.531-5.258-5.118-8.61-4.778
              c2.302,2.453,4.758,7.046,4.26,10.595c-2.686-1.548-4.243-5.104-7.071-6.843c-2.237-1.383-4.724-1.899-7.336-1.708
              c7.56,2.708,11.69,10.162,14.507,17.195c1.601,3.999,2.641,7.451,5.32,10.933c2.545,3.304,4.16,6.868,4.751,10.899
              c0.583,3.92-1.527,7.245,0.895,10.785c1.901,2.786,4.319,4.733,6.732,7.167c2.385,2.403,5.405,6.606,7.674,9.147
              c2.653,2.97,5.969,5.818,5.419,10.273c-0.345,2.801-1.64,4.566-4.121,5.342c-2.428,0.757-6.308,0.267-6.119,3.673
              c0.066,1.295,0.012,2.484,0.131,3.926c0.121,1.467,0.155,3.99,0.064,5.662c-0.073,1.343-0.775,3.371-1.733,4.122
              c-1.208,0.943-2.082,0.082-3.157,1.028c4.155-0.149,5.881,5.576,4.447,8.468c-0.962,1.938-2.533,3.136-2.601,5.514
              c-0.04,1.402-0.027,2.939,0.536,4.307c0.512,1.246,1.562,2.324,1.802,3.477c1.062,5.058,0.028,5.473-1.507,9.995
              c-1.327,3.907-2.165,4.938-5.833,6.42c-3.041,1.227-12.895,1.833-17.314,2.574c-4.435,0.741-7.863,3.025-7.631,7.758
              c0.104,2.195,1.111,3.979,1.015,6.352"/>
            <path class="name" fill="none" stroke="#000000" stroke-width="0.5" stroke-miterlimit="10" d="M65.547,80.371
              c0.095-2.027,1.461-4.073-0.225-5.748c-1.848-1.831-3.851-0.253-5.673,0.746c-3.659,2-6.78,4.992-10.408,7.092
              c2.469,1.263,13.58-7.64,14.258-2.73c1.355,0.703,2.333,0.094,2.342-1.451"/>
            <path class="name" fill="none" stroke="#000000" stroke-width="0.5" stroke-miterlimit="10" d="M63.452,84.852
              c-0.959,1.438-2.484,0.946-3.284,2.707c-0.742,1.633,1.047,3.981-0.782,4.95c-0.76-1.068-1.985-4.253-0.112-4.97"/>
            <path class="name" fill="none" stroke="#000000" stroke-width="0.5" stroke-miterlimit="10" d="M55.096,88.432
              c-0.204,0.246-2.678,2.048-3.48,3.301c1.874-0.324,3.073,1.105,4.375,1.478"/>
            <path class="name" fill="none" stroke="#000000" stroke-width="0.5" stroke-miterlimit="10" d="M69.725,111.727
              c-0.04,2.328-2.133,10.267,2.689,8.659"/>
            <path class="name" fill="none" stroke="#000000" stroke-width="0.25" stroke-miterlimit="10" d="M76.296,117.997
              c1.482-0.441,3.241-2.171,4.779-1.792"/>
            <path class="name" fill="none" stroke="#000000" stroke-width="0.25" stroke-miterlimit="10" d="M41.688,18.989
              c-2.415,2.692-6.786,4.021-10.388,2.396"/>
            <path class="text-box" fill="none" stroke="#000000" stroke-width="0.75" stroke-miterlimit="10" d="M82,136.333
              c10.236-5.263,18.563-0.915,19.333,11.334c0.354,5.631-0.49,10.763,3.187,15.367c5.34,6.687,11.536,4.042,15.314-2.664
              c7.813-13.867,3.692-34.037-1.319-48.22C112.727,95.767,101.498,82.916,98,65.503C83.022-9.052,201.636,11.1,242.521,15.016
              c12.71,1.217,28.98,7.918,41.583,4.814c6.768-1.667,10.047-8.677,17.229-9.348c7.193-0.673,7.187,4.201,2.718,9.065
              c4.778-0.833,21.729-9.114,22.516-0.012c-4.094,1.536-8.015,4.036-12.411,4.962c3.585,0.38,13.066,1.2,13.877,6.468
              c0.942,6.133-5.763,4.284-9.132,6.071c4.053,0.268,9.645,2.807,8.996,7.863c-9.756,0.553-8.281,0.213-5.034,8.23
              c1.837,4.533,3.061,10.38,3.842,15.204c2.186,13.504-2.389,28.21-5.889,41.314c-2.2,8.236-12.971,27.347-9.418,35.353
              c2.236,5.041,11.01,6.489,14.452,10.812c4.318,5.425,5.333,11.24-3.132,10.621c1,3.493,3.599,8.63,1.115,12.251
              c-3.134,4.567-7.019,3.14-7.867-2.149c0.504,8.675-4.756,15.461-11.466,8.449c-5.011-5.235-7.785-10.287-15.034-4.053
              c1.987-10.221-21.74-7.922-28.133-7.267c-15.792,1.619-32.523,1.912-48.518,1.187c-13.102-0.595-29.961,2.024-42.183-3.185
              c-10.336-4.404-15.074-19.498-20.63-28.665c-2.327-3.839-7.957-14.758-14.035-12.034c-3.331,1.493-3.514,10.788-4.002,14.032
              c-1.715,11.392-2.364,25.073-14.632,30.85c-12.997,6.119-19.861-2.619-22-14.183c-0.93-5.029,0.668-10.989-0.632-16
              c-0.713-2.746-1.473-4.415-3.867-6.165c-2.093-1.529-5.025-0.764-6.686-1.983c-0.769-0.564-1.012-0.377-1.962-0.517
              c2.086,0.214,3.798-0.313,5.814-0.669"/>
            <path class="name" fill="none" stroke="#000000" stroke-width="0.75" stroke-miterlimit="10" d="M174.667,53.667
              c2.054-6.662,6.847-9.741,10.833-3.499c3.059,4.79,2.137,13.111,1.868,18.833c-0.607,12.908-4.137,25.549-4.034,38.666"/>
            <path class="name" fill="none" stroke="#000000" stroke-width="0.75" stroke-miterlimit="10" d="M215.334,49
              c2.309,9.217-2.148,25.813-3.318,36.016c-0.623,5.429-2.16,11.454-1.35,17.318c0.861,6.221,7.459,9.922,8.1,1.446
              c0.807-0.017,1.273-0.329,1.9-0.78"/>
            <path class="name" fill="none" stroke="#000000" stroke-width="0.75" stroke-miterlimit="10" d="M186.666,76.333
              c0.375-2.153,23.343-0.996,27.334-0.667"/>
            <path class="name" fill="none" stroke="#000000" stroke-width="0.75" stroke-miterlimit="10" d="M236,49.667c1.692-6.42,5.551,3.316,6.002,7.333
              c0.77,6.835,0.357,13.278-1.335,20c-1.259,5-10.683,35.369-1.45,33.217c0.541-1.4,1.924-3.549,2.116-4.551"/>
            </svg>
